<?xml version="1.0" encoding="UTF-8" standalone="no"?>
<svg
   class="svg-icon"
   style="width: 1em; height: 1em;vertical-align: middle;fill: currentColor;overflow: hidden;"
   viewBox="0 0 1024 1024"
   version="1.1"
   id="svg8"
   sodipodi:docname="arrow-down-33.svg"
   inkscape:version="1.1.2 (0a00cf5339, 2022-02-04)"
   xmlns:inkscape="http://www.inkscape.org/namespaces/inkscape"
   xmlns:sodipodi="http://sodipodi.sourceforge.net/DTD/sodipodi-0.dtd"
   xmlns="http://www.w3.org/2000/svg"
   xmlns:svg="http://www.w3.org/2000/svg">
  <defs
     id="defs12" />
  <sodipodi:namedview
     id="namedview10"
     pagecolor="#ffffff"
     bordercolor="#666666"
     borderopacity="1.0"
     inkscape:pageshadow="2"
     inkscape:pageopacity="0.0"
     inkscape:pagecheckerboard="0"
     showgrid="false"
     inkscape:zoom="1.1476675"
     inkscape:cx="501.01621"
     inkscape:cy="671.36173"
     inkscape:window-width="3840"
     inkscape:window-height="2085"
     inkscape:window-x="0"
     inkscape:window-y="43"
     inkscape:window-maximized="1"
     inkscape:current-layer="svg8" />
  <path
     d="m 254.7994,640.73886 c 0,-12.8 4.26667,-21.33333 12.8,-29.86667 17.06667,-17.06666 42.66667,-17.06666 59.73334,0 l 213.33333,213.33334 c 17.06667,17.06666 17.06667,42.66666 0,59.73333 -17.06667,17.06667 -42.66667,17.06667 -59.73333,0 L 267.5994,670.60553 c -8.53333,-8.53334 -12.8,-17.06667 -12.8,-29.86667 z"
     id="path2" />
  <path
     d="m 474.33817,851.59324 c 0,-12.8 4.26667,-21.33333 12.8,-29.86667 L 700.47151,608.39324 c 17.06666,-17.06667 42.66666,-17.06667 59.73333,0 17.06667,17.06667 17.06667,42.66667 0,59.73333 L 546.87151,881.45991 c -17.06667,17.06666 -42.66667,17.06666 -59.73334,0 -8.53333,-8.53333 -12.8,-17.06667 -12.8,-29.86667 z"
     id="path4" />
  <path
     d="M 469.33333,853.33333 V 170.66667 C 469.33333,145.06667 486.4,128 512,128 c 25.6,0 42.66667,17.06667 42.66667,42.66667 V 853.33333 C 554.66667,878.93333 537.6,896 512,896 c -25.6,0 -42.66667,-17.06667 -42.66667,-42.66667 z"
     id="path6" />
</svg>
